<?xml version="1.0" standalone="no"?><!DOCTYPE svg PUBLIC "-//W3C//DTD SVG 1.1//EN" "http://www.w3.org/Graphics/SVG/1.1/DTD/svg11.dtd"><svg xmlns:xlink="http://www.w3.org/1999/xlink" xmlns="http://www.w3.org/2000/svg" version="1.1" width="250" height="250" viewBox="0 0 250 250"><defs><style type="text/css"><![CDATA[
@font-face {
  font-family: "ifont";
  src: url("//at.alicdn.com/t/font_1442373896_4754455.eot?#iefix") format("embedded-opentype"), url("//at.alicdn.com/t/font_1442373896_4754455.woff") format("woff"), url("//at.alicdn.com/t/font_1442373896_4754455.ttf") format("truetype"), url("//at.alicdn.com/t/font_1442373896_4754455.svg#ifont") format("svg");
}

]]></style></defs><g class="transform-group"><g transform="scale(0.244140625, 0.244140625)"><path d="M252.262886 329.298911c0 74.104765 0 152.337547 0 227.910757 0 5.247514-0.608867 11.519358 1.227967 14.490016 5.997598 9.700943 33.816177-0.428765 39.049365 10.314926 1.787716 3.669576 0.982374 11.200086 0.982374 17.191544 0 2.874467 0 5.820566 0 9.086959 0 2.688225 0.662079 7.119141 0 8.841366-0.721431 1.876744-9.103332 4.114714-11.2973 4.6673-4.546549 1.14508-9.281387 1.677199-13.998829 1.964748-11.149944 0.679475-20.547988-1.086751-28.243251-3.192715-11.488659-3.14462-23.152303-8.768711-31.927153-15.963577-2.523473-2.069125-6.803963-5.760191-7.613398-8.104585-0.589424-1.706875-0.662079-4.334725-0.982374-6.631024-2.155083-15.46318-3.225461-32.649608-3.929496-49.364291-2.529613-60.012815 1.968841-119.860878 0-180.020026-18.886139-4.719488-25.102724 9.828856-41.014112 10.314926-11.545964 49.935296 7.909134 130.868583-45.680389 138.760321 19.583011 10.334369 30.717605 25.542746 37.084617 50.101071 5.453199 21.030989 5.963829 45.515636 4.175089 70.485331-0.50756 7.086395-1.196245 13.256932 1.964748 18.173918 6.096858 9.480932 22.843264 10.635221 27.506471 21.612227 1.483794 3.493567 2.061962 10.343579 0.73678 14.244422-0.974188 2.866281-4.498454 5.54018-7.367805 7.367805-16.363689 10.419304-44.535309 3.247974-59.188031-4.175089-2.920516-1.479701-6.160303-3.400446-9.086959-5.649674-2.834558-2.177596-5.970992-4.757351-7.122211-7.367805-0.727571-1.647523-1.011027-4.131087-1.473561-6.384407-2.87242-13.979386-3.429099-33.365922-3.683902-50.101071-0.150426-9.874905 0-20.406772 0-30.944779 0-13.049201 2.210341-28.602432-2.947122-36.839023-7.302313-11.662621-28.349675-13.085016-32.172747-29.471219-1.811252-7.761778-0.864694-18.505469 3.683902-24.068162 6.481621-7.92653 18.603707-10.584056 26.03291-18.173918 2.240017-2.289136 5.024433-5.935176 5.403057-9.086959 0.249687-2.077312-0.582261-4.747117-0.982374-7.122211-2.600221-15.451924-4.723581-33.943067-3.192715-52.065819 4.575202-54.177923 38.164205-79.417771 92.588745-83.992973C204.911438 324.079026 229.680565 326.142012 252.262886 329.298911zM818.110281 694.986591c-2.009773-7.760754-2.203178-16.181541 0.73678-22.349007 4.589528-9.627265 16.116049-13.272281 23.822568-20.384259 2.581802-2.382257 5.581112-5.77861 6.139837-8.595772 0.51677-2.608407-0.099261-7.231705-0.245593-10.559497-2.325975-52.890604 0.035816-106.436124 41.014112-118.130468-2.018983-1.851161-4.477988-2.931772-6.630001-4.420683-27.594475-19.077497-36.465516-57.355289-35.119869-105.6052 0.094144-3.373841 0.271176-6.886851 0.490164-10.314926 0.396019-6.138814 1.00591-11.819187-1.226944-16.454764-5.771447-11.974729-25.171286-13.023618-30.209022-26.278503-2.51324-6.613628-1.174756-15.090697 1.227967-22.594601 4.333702-0.317225 9.700943-1.001817 14.490016-1.227967 38.672788-1.827625 60.796668 16.265452 70.730924 43.715641 7.718799 21.330818 9.296737 47.266513 8.594749 76.625168-0.103354 4.297886-0.51984 8.921183-0.73678 13.507642-0.212848 4.498454-0.788969 9.216919 0 13.262048 3.449565 17.700127 29.595039 13.090133 34.874275 29.716812 2.688225 8.466835 1.090844 19.0908-3.192715 25.296129-7.198959 10.426467-23.115464 13.482059-33.400714 21.85782-1.574868 1.282203-3.445472 3.143597-3.684926 4.175089-0.379647 1.64343 0.12382 4.803399 0.245593 7.367805 1.63422 34.308387 4.475941 74.948993-6.139837 101.921297-5.658883 14.379499-15.035438 24.883737-29.716812 29.962405C855.385233 700.595332 833.493643 699.148377 818.110281 694.986591zM473.541595 535.350824c-42.896996 0-85.792968 0-128.690988 0-0.195451 27.430746 15.759939 40.199561 39.786145 43.716664 25.656333 3.75451 52.738132-2.735297 73.432453-7.860015 0.487094 16.58063 8.856715 28.977985 5.157463 46.663786-17.561981 3.717671-34.889625 7.142677-54.521754 7.612375-20.438495 0.490164-39.782052-1.409093-55.504128-6.139837-31.451316-9.462512-55.080479-28.958542-63.36312-60.907185-9.636474-37.168528-1.162476-77.034491 13.507642-102.412484 7.627724-13.19451 17.588587-23.893176 29.716812-32.41834 12.404518-8.719592 28.367071-15.075347 47.15395-15.963577 18.671245-0.88209 35.981493 2.50096 48.381917 8.595772 12.687974 6.237051 22.067598 15.839757 29.716812 27.260877 7.284917 10.878768 13.461593 24.540929 16.454764 40.522925C477.751476 499.939313 477.811852 518.760984 473.541595 535.350824zM411.407466 464.37533c-7.459902-6.585999-17.893532-10.740622-31.190373-9.82374-20.965497 1.445932-36.735669 15.675004-35.611056 39.294958 25.296129 0.573051 51.656497 0.081864 77.361949 0.245593C423.305447 480.960053 418.810063 470.91221 411.407466 464.37533zM632.932792 422.13325c-0.969071 16.140609-5.326309 28.892027-10.069333 41.259706-11.765975-4.03592-25.811876-9.172917-41.259706-10.069333-17.421788-1.010003-30.253024 3.305279-36.102243 14.981203 12.117992 30.842449 62.554708 24.40176 83.747379 46.908356 1.426489 1.51347 3.225461 3.246951 3.930519 4.666276 0.926092 1.86958 1.318018 4.437056 1.964748 6.631024 4.387937 14.892175 6.599302 35.804461 0.982374 51.329039-5.953595 16.452717-18.398022 27.776623-32.663934 35.365462-14.944364 7.951089-33.910321 12.046361-55.258535 13.017478-21.187555 0.961908-42.208311-3.219321-59.434647-8.595772-2.473331-19.35686 4.666276-33.082466 10.069333-46.171576 1.786693 0.358157 3.425006 1.231037 5.157463 1.964748 23.12979 9.792017 74.083276 15.431457 82.519412-12.034081-5.172813-11.184737-13.349029-18.376533-23.822568-23.086811-10.897188-4.89959-23.585161-7.236821-35.856649-10.806113-12.218276-3.552919-22.673395-8.259104-29.471219-17.437138-3.172249-4.284583-5.659907-9.621125-7.613398-15.717983-1.867534-5.829775-3.421936-12.644995-3.438309-19.893072-0.047072-21.947871 12.798491-37.563524 26.278503-46.908356 14.405081-9.986445 33.967626-16.629749 56.240909-17.682731C595.102185 408.612305 615.169219 414.329517 632.932792 422.13325zM792.568559 422.13325c2.940982 14.242376-3.204995 24.883737-5.403057 36.347836-6.807033 2.921539-14.771425 1.00284-21.85782-0.491187-6.982018-1.472538-14.19428-3.160993-21.12104-4.175089-14.297634-2.092661-26.894534-0.603751-32.171724 10.069333-0.652869 1.319042-1.698688 3.069919-1.720178 4.420683-0.039909 2.597151 2.955308 7.874341 4.175089 9.82374 5.383614 8.598842 14.789844 13.673417 25.541723 16.20917 15.785521 3.722788 32.836873 3.665483 43.715641 11.788487 2.88163 2.152013 5.255701 5.255701 7.613398 8.104585 8.110725 9.798157 15.745612 22.530133 14.490016 41.259706-1.157359 17.273409-10.850116 30.497595-20.629853 40.276309-19.578917 19.578917-49.278333 33.401738-88.168062 33.401738-17.801435 0-35.049261-4.682649-48.873104-11.789511-2.615571-20.394493 8.956999-28.689413 10.314926-45.925982 1.886977 0.12996 3.430122 1.306762 5.157463 1.964748 5.325285 2.02717 11.149944 3.518127 17.191544 4.91187 22.726607 5.245468 52.721759 5.251607 62.871933-12.034081 0.967024-1.647523 2.184759-3.87833 2.209318-5.157463 0.060375-2.995217-4.236488-9.578146-5.894244-11.542894-16.107863-19.09694-51.5337-17.358343-72.695672-31.927153-3.588735-2.471284-7.500834-5.337565-9.086959-8.350179-1.264806-2.403746-2.094708-6.060019-2.947122-8.841366-2.529613-8.248871-4.874007-19.671015-3.929496-30.207999 1.290389-14.391778 6.721075-24.444738 13.752212-32.41834 14.134929-16.029068 37.464263-26.154683 66.065671-27.506471C756.266771 409.15875 775.601118 414.637532 792.568559 422.13325z" fill="#272636"></path></g></g></svg>