<svg width="900" height="500" xmlns="http://www.w3.org/2000/svg" xmlns:svg="http://www.w3.org/2000/svg">
 <defs>
  <style type="text/css">
   <![CDATA[
@font-face {
  font-family: "ifont";
  src: url("//at.alicdn.com/t/font_1442373896_4754455.eot?#iefix") format("embedded-opentype"), url("//at.alicdn.com/t/font_1442373896_4754455.woff") format("woff"), url("//at.alicdn.com/t/font_1442373896_4754455.ttf") format("truetype"), url("//at.alicdn.com/t/font_1442373896_4754455.svg#ifont") format("svg");
}

]]>
  </style>
 </defs>
 <g>
  <title>Layer 1</title>
  <g class="transform-group" id="svg_1">
   <g transform="translate(260, 156) scale(0.244141)" id="svg_2">
    <path d="m1440.83423,323.72763l-615.20459,-615.16055c-35.40118,-35.44513 -92.86188,-35.44513 -128.35107,0l-142.92548,142.92545l107.56836,107.56836c17.26025,-8.23386 36.5459,-12.90115 56.93237,-12.90115c72.95984,0 132.09381,59.13397 132.09381,132.09372c0,20.38647 -4.62335,39.7162 -12.90118,56.9324l176.08093,176.08099c17.26031,-8.23386 36.54596,-12.90118 56.93243,-12.90118c72.95972,0 132.09375,59.13394 132.09375,132.09375s-59.13403,132.09375 -132.09375,132.09375s-132.09381,-59.134 -132.09381,-132.09375c0,-20.38644 4.62341,-39.71622 12.90125,-56.93243l-176.08099,-176.08092c-4.18292,2.02541 -8.49805,3.78667 -12.90112,5.32774l0,367.35278c51.29633,18.14075 88.0625,67.0155 88.0625,124.56433c0,72.95984 -59.13397,132.09369 -132.09381,132.09369s-132.09369,-59.13385 -132.09369,-132.09369c0,-57.50482 36.76605,-106.42358 88.06244,-124.56433l0,-367.35278c-51.29639,-18.14085 -88.06244,-67.01552 -88.06244,-124.56436c0,-20.38649 4.62335,-39.71616 12.90118,-56.9324l-107.5683,-107.56836l-407.15692,407.11295c-35.44516,35.48911 -35.44516,92.90585 0,128.35104l615.24854,615.16058c35.40112,35.44507 92.86188,35.44507 128.35107,0l612.29852,-612.29852c35.44519,-35.44519 35.44519,-92.94998 0,-128.3511l0,0.04401z" fill="#272636" id="svg_3"/>
   </g>
  </g>
 </g>
</svg>