<svg width="900" height="500" xmlns="http://www.w3.org/2000/svg" xmlns:svg="http://www.w3.org/2000/svg">
 <defs>
  <style type="text/css">
   <![CDATA[
@font-face {
  font-family: "ifont";
  src: url("//at.alicdn.com/t/font_1442373896_4754455.eot?#iefix") format("embedded-opentype"), url("//at.alicdn.com/t/font_1442373896_4754455.woff") format("woff"), url("//at.alicdn.com/t/font_1442373896_4754455.ttf") format("truetype"), url("//at.alicdn.com/t/font_1442373896_4754455.svg#ifont") format("svg");
}

]]>
  </style>
 </defs>
 <g>
  <title>Layer 1</title>
  <g class="transform-group" id="svg_1">
   <g transform="translate(235, 152) scale(0.244141)" id="svg_2">
    <path d="m219.9807,409.93106c0,302.90372 194.12273,560.46835 464.74641,655.07211c36.46112,9.26501 30.79645,-16.88257 30.79645,-34.45569l0,-120.26221c-210.423,24.62244 -218.85339,-114.67944 -233.06,-137.987c-28.64859,-48.77997 -96.01144,-61.16852 -75.88,-84.39709c48.00571,-24.7771 96.78571,6.19427 153.30859,89.81714c40.96899,60.61273 120.58105,50.44324 161.29608,40.25671c8.89661,-36.39142 27.8418,-68.8418 53.72772,-94.24451c-217.69666,-38.75922 -308.7124,-171.84192 -308.7124,-330.05948c0,-76.57217 25.27579,-147.25984 75.05151,-204.21471c-31.47162,-93.99678 3.02899,-174.11678 7.54468,-186.15692c90.00446,-8.18264 183.58466,64.38652 190.80255,70.10382c51.27942,-13.70486 109.62653,-21.19217 174.91272,-21.19217c65.69653,0 124.36572,7.58179 175.87891,21.45235c17.57788,-13.37037 104.35059,-75.56875 188.03528,-67.96218c4.46301,11.90236 38.22644,90.32198 8.60693,182.91265c50.26355,57.10045 75.79028,128.10709 75.79028,205.05716c0,158.53354 -91.38123,291.83298 -310.01941,330.28867c36.51221,35.95313 59.15076,85.95959 59.15076,141.26373l0,174.4389c1.16455,13.89526 0,27.89282 23.36182,27.89282c274.49658,-92.45435 472.18103,-351.95319 472.18103,-657.62411c0,-383.15381 -310.6062,-693.76007 -693.75989,-693.76007c-383.15222,0 -693.76003,310.60626 -693.76003,693.76007l0,0z" fill="#272636" id="svg_3"/>
   </g>
  </g>
 </g>
</svg>