<svg width="900" height="500" xmlns="http://www.w3.org/2000/svg" xmlns:svg="http://www.w3.org/2000/svg">
 <defs>
  <style type="text/css">
   <![CDATA[
@font-face {
  font-family: "ifont";
  src: url("//at.alicdn.com/t/font_1442373896_4754455.eot?#iefix") format("embedded-opentype"), url("//at.alicdn.com/t/font_1442373896_4754455.woff") format("woff"), url("//at.alicdn.com/t/font_1442373896_4754455.ttf") format("truetype"), url("//at.alicdn.com/t/font_1442373896_4754455.svg#ifont") format("svg");
}

]]>
  </style>
 </defs>
 <g>
  <title>Layer 1</title>
  <g class="transform-group" id="svg_1">
   <g transform="translate(329, 173) scale(0.244141)" id="svg_2">
    <path d="m335.88452,-234.2652l-249.23428,0l0,662.02234c0,163.80933 -56.1774,209.54694 -153.93954,209.54694c-45.81244,0 -87.07001,-7.854 -119.16516,-18.88892l-25.97644,193.80151c45.79675,15.77026 116.07776,25.22253 171.05884,25.22253c224.46042,0 377.25659,-105.52271 377.25659,-408.05893l0,-663.64548l0,0zm543.5271,-24.92651c-241.26825,0 -393.98651,137.0726 -393.98651,318.25351c0,156.02998 117.6106,253.72055 288.61639,316.73004c123.68256,44.10831 172.56982,83.51846 172.56982,148.10434c0,70.89471 -56.51074,116.59503 -163.39795,116.59503c-99.26697,0 -189.38385,-33.14825 -250.46179,-66.21851l0,-0.06543l-47.32648,196.95734c58.06848,33.14191 166.49164,66.21844 284.02423,66.21844c282.52893,-0.00616 413.83179,-151.26025 413.83179,-329.29456c0,-151.25403 -83.98572,-248.92279 -265.67761,-318.28152c-134.39636,-53.55737 -190.8822,-83.47797 -190.8822,-151.22916c0,-53.58536 48.87488,-102.40103 149.6745,-102.40103c99.21393,0 167.43573,33.35687 207.19159,53.86887l59.58252,-199.38745c-62.30859,-27.35651 -146.22882,-49.84991 -263.7583,-49.84991l0,0l0,0z" fill="#272636" id="svg_3"/>
   </g>
  </g>
 </g>
</svg>