<svg width="900" height="500" xmlns="http://www.w3.org/2000/svg" xmlns:svg="http://www.w3.org/2000/svg">
 <defs>
  <style type="text/css">
   <![CDATA[
@font-face {
  font-family: "ifont";
  src: url("//at.alicdn.com/t/font_1442373896_4754455.eot?#iefix") format("embedded-opentype"), url("//at.alicdn.com/t/font_1442373896_4754455.woff") format("woff"), url("//at.alicdn.com/t/font_1442373896_4754455.ttf") format("truetype"), url("//at.alicdn.com/t/font_1442373896_4754455.svg#ifont") format("svg");
}

]]>
  </style>
 </defs>
 <g>
  <title>Layer 1</title>
  <g class="transform-group" id="svg_1">
   <g transform="translate(261, 53) scale(0.244141)" id="svg_2">
    <path d="m1302.97595,1182.75879c40.94226,-22.08191 68.18347,-57.99988 111.89685,-71.92444c-117.44067,173.24109 -231.93726,309.6825 -479.5481,327.67542c-201.5249,14.65186 -380.55225,-65.17175 -503.53506,-151.85376c-31.0878,-21.90698 -67.85617,-45.18555 -87.91168,-63.94214c-6.82373,-6.37329 -1.4548,-25.21655 -8.0014,-31.97095c-29.39053,-30.29102 -91.6353,-82.09253 -119.88269,-127.86682c-13.30107,-21.54309 -19.91695,-54.57239 -31.97102,-79.92755c-52.37292,-110.20135 -92.60516,-311.39539 -39.95514,-463.56256c13.68205,-39.5741 48.21635,-78.99234 71.92616,-111.89859c24.50647,-34.03201 50.48511,-62.92023 71.92615,-103.89722c-5.4382,86.82062 -40.26686,141.21982 -31.97102,255.75095c19.89958,274.66156 203.20479,482.7348 399.6378,599.43073c4.43365,2.6499 20.67902,-3.74084 23.9696,0c13.42236,15.25818 45.25476,30.56824 95.91309,47.95667c151.68231,52.11304 390.02576,50.13867 527.50647,-23.96973zm111.89844,-415.60596c-57.30884,127.79742 -172.84448,246.20801 -399.63782,231.78125c-303.27441,-19.29352 -602.18445,-356.30548 -471.54663,-663.37283c12.00214,-28.23007 37.16675,-53.53326 55.94067,-79.92757c17.6308,-24.78363 33.98004,-55.04002 63.94202,-71.94345c-130.48193,270.8358 103.96649,551.31837 311.70892,639.40315c124.87054,52.96179 361.44916,24.71436 439.59283,-55.94055l0,0zm-487.54944,-559.47565c2.58051,229.94543 282.19714,402.51282 503.53503,287.72192c-64.79065,167.12915 -319.45056,171.82263 -463.57983,47.95654c-120.62744,-103.68936 -147.03906,-297.09157 -31.95374,-423.59013c22.02985,33.47775 -8.34784,56.46021 -8.00146,87.91166z" fill="#272636" id="svg_3"/>
   </g>
  </g>
 </g>
</svg>