<svg width="900" height="500" xmlns="http://www.w3.org/2000/svg" xmlns:svg="http://www.w3.org/2000/svg">
 <defs>
  <style type="text/css">
   <![CDATA[
@font-face {
  font-family: "ifont";
  src: url("//at.alicdn.com/t/font_1442373896_4754455.eot?#iefix") format("embedded-opentype"), url("//at.alicdn.com/t/font_1442373896_4754455.woff") format("woff"), url("//at.alicdn.com/t/font_1442373896_4754455.ttf") format("truetype"), url("//at.alicdn.com/t/font_1442373896_4754455.svg#ifont") format("svg");
}

]]>
  </style>
 </defs>
 <g>
  <title>Layer 1</title>
  <g class="transform-group" id="svg_1">
   <g transform="translate(248, 89) scale(0.244141)" id="svg_2">
    <path d="m287.71997,705.90619l0,0l0,0l3.16333,0l-3.16333,0zm515.62482,-183.47388c-66.43018,0 -94.90027,69.59357 -94.90027,142.3504c0,72.75696 31.63342,139.18713 94.90027,139.18713c63.26691,0 94.90033,-66.43018 94.90033,-142.35046c0,-66.43018 -28.47009,-139.18707 -94.90033,-139.18707zm366.94781,-325.82431l-841.44913,0c-139.18709,0 -253.06743,113.88034 -253.06743,253.06741l0,506.13483c0,139.18707 113.88034,253.06744 253.06743,253.06744l841.44913,0c139.18701,0 253.06738,-113.88037 253.06738,-253.06744l0,-506.13483c0,-139.18707 -113.88037,-253.06741 -253.06738,-253.06741zm-825.63245,528.27829c0,94.90027 -44.2868,123.37036 -107.55365,123.37036c-15.81676,0 -34.79677,-3.16339 -47.45015,-6.32666l6.32672,-44.2868c9.49002,3.16327 22.1434,6.32666 34.79677,6.32666c34.79675,0 56.94016,-15.81665 56.94016,-79.08356l0,-240.41403l53.77682,0l0,240.41403l3.1633,0l0.00003,0zm142.35043,123.3703c-34.79684,0 -69.59354,-9.49005 -85.41025,-22.14343l12.65335,-44.2868c18.98007,12.65344 47.45016,22.14343 79.08356,22.14343c44.28683,0 66.43021,-22.14343 66.43021,-53.77679c0,-31.63348 -18.98004,-50.61353 -60.10358,-66.43024c-53.77679,-22.14343 -88.57352,-53.77686 -88.57352,-104.39032c0,-56.94019 44.28677,-101.22696 117.04367,-101.22696c34.79681,0 60.10352,9.48999 75.92023,15.81668l-12.65344,44.2868c-12.65332,-6.32666 -34.79669,-15.81671 -63.26678,-15.81671c-44.28683,0 -60.10355,25.30676 -60.10355,47.45013c0,31.63348 18.98007,44.2868 66.43027,66.43024c56.94006,25.3067 85.41022,56.94019 85.41022,107.55365c-6.32666,60.10352 -50.61346,104.39032 -132.86038,104.39032zm316.3342,0c-91.73688,0 -151.84039,-72.7569 -151.84039,-183.47388c0,-113.88037 63.26685,-186.63724 155.00372,-186.63724c94.90027,0 148.67719,79.08359 148.67719,183.47385c0,123.37042 -66.43024,186.63727 -151.84052,186.63727zm468.17474,-3.16333l-53.77673,0l-94.90039,-167.65717c-22.14331,-37.96008 -44.28674,-82.24689 -60.10352,-120.20703l-3.16333,0c3.16333,44.2868 3.16333,91.73694 3.16333,155.00385l0,136.02368l-50.6134,0l0,-363.78439l60.10352,0l94.90027,167.6572c22.14343,37.96008 44.28674,82.24689 56.94019,120.20697l0,0c-3.16345,-47.45007 -6.32666,-94.90021 -6.32666,-151.84045l0,-132.86038l50.6134,0l0,357.45773l3.16333,0z" fill="#272636" id="svg_3"/>
   </g>
  </g>
 </g>
</svg>