<svg width="900" height="500" xmlns="http://www.w3.org/2000/svg" xmlns:svg="http://www.w3.org/2000/svg">
 <defs>
  <style type="text/css">
   <![CDATA[
@font-face {
  font-family: "ifont";
  src: url("//at.alicdn.com/t/font_1442373896_4754455.eot?#iefix") format("embedded-opentype"), url("//at.alicdn.com/t/font_1442373896_4754455.woff") format("woff"), url("//at.alicdn.com/t/font_1442373896_4754455.ttf") format("truetype"), url("//at.alicdn.com/t/font_1442373896_4754455.svg#ifont") format("svg");
}

]]>
  </style>
 </defs>
 <g>
  <title>Layer 1</title>
  <g class="transform-group" id="svg_1">
   <g transform="translate(194, 67) scale(0.244141)" id="svg_2">
    <path d="m454.85782,333.43942c0,150.75662 0,309.91116 0,463.65506c0,10.67535 -1.23865,23.43463 2.49814,29.47815c12.20132,19.73529 68.79462,-0.87225 79.44098,20.98431c3.63684,7.46539 1.99847,22.78522 1.99847,34.97406c0,5.84772 0,11.84119 0,18.48621c0,5.46881 1.34692,14.48297 0,17.98657c-1.46771,3.81805 -18.51959,8.37097 -22.98291,9.49506c-9.24936,2.32953 -18.88177,3.41211 -28.47879,3.99707c-22.68317,1.38226 -41.80225,-2.21082 -57.45728,-6.49524c-23.37219,-6.39728 -47.10037,-17.83875 -64.95169,-32.47577c-5.13367,-4.20935 -13.84177,-11.71838 -15.48846,-16.48767c-1.19913,-3.47253 -1.34692,-8.81842 -1.9985,-13.49005c-4.38425,-31.45789 -6.5618,-66.42139 -7.99408,-100.42535c-5.14615,-122.08826 4.00537,-243.84143 0,-366.22751c-38.42142,-9.60117 -51.06827,19.99557 -83.43793,20.98438c-23.48878,101.58694 16.09015,266.23532 -92.93085,282.29001c39.83911,21.02393 62.49098,51.96338 75.44386,101.92419c11.09384,42.78485 12.13269,92.5957 8.4937,143.39337c-1.03259,14.41632 -2.43361,26.96948 3.99702,36.97247c12.40324,19.28778 46.47169,21.63605 55.95839,43.96729c3.01855,7.10718 4.19476,21.04272 1.49887,28.97839c-1.98187,5.83118 -9.15152,11.27087 -14.98889,14.98901c-33.28979,21.19653 -90.60132,6.60742 -120.4104,-8.49377c-5.94142,-3.01025 -12.53235,-6.91785 -18.48624,-11.49353c-5.76654,-4.43005 -12.14722,-9.67822 -14.48923,-14.98877c-1.48015,-3.35168 -2.05681,-8.4043 -2.99779,-12.9884c-5.84355,-28.43921 -6.97606,-67.87866 -7.49442,-101.92419c-0.30602,-20.08917 0,-41.51489 0,-62.95313c0,-26.54694 4.49664,-58.18793 -5.99554,-74.94421c-14.85561,-23.7262 -57.67375,-26.61981 -65.45132,-59.95544c-3.68475,-15.79034 -1.7591,-37.64697 7.49442,-48.96356c13.18603,-16.12555 37.84685,-21.53198 52.9606,-36.97253c4.55703,-4.65692 10.22158,-12.07434 10.99183,-18.48633c0.50798,-4.22601 -1.18452,-9.65735 -1.99851,-14.4892c-5.28985,-31.43488 -9.60955,-69.05267 -6.49518,-105.9212c9.30764,-110.21799 77.64016,-161.56522 188.35992,-170.87292c49.0614,-4.12604 99.45099,0.0708 145.39182,6.49313l-0.00003,0.00006zm1151.14377,743.94449c-4.08862,-15.78821 -4.48206,-32.91919 1.4989,-45.46619c9.33679,-19.58539 32.78601,-27.00073 48.46387,-41.46918c5.25244,-4.84637 11.35413,-11.75586 12.49084,-17.48694c1.05127,-5.30646 -0.20203,-14.71198 -0.49963,-21.48199c-4.73193,-107.59906 0.07275,-216.53052 83.43787,-240.32117c-4.1073,-3.76599 -9.10974,-5.96429 -13.48779,-8.99335c-56.13745,-38.81073 -74.18445,-116.68195 -71.4469,-214.84021c0.19141,-6.86365 0.55164,-14.01038 0.99719,-20.98434c0.80554,-12.48865 2.04639,-24.04468 -2.49609,-33.47513c-11.74133,-24.36105 -51.20776,-26.49487 -61.45642,-53.46024c-5.11279,-13.45462 -2.38977,-30.70007 2.49817,-45.96582c8.81628,-0.64536 19.73535,-2.03809 29.47803,-2.49814c78.6748,-3.71808 123.68311,33.08997 143.89307,88.93384c15.70288,43.39487 18.91309,96.15765 17.48486,155.88416c-0.21021,8.74341 -1.0575,18.14893 -1.4989,27.47955c-0.43286,9.15143 -1.6051,18.75061 0,26.97986c7.0177,36.00867 60.2074,26.63019 70.94727,60.45508c5.46887,17.22461 2.21912,38.83771 -6.49512,51.46161c-14.64539,21.21143 -47.02551,27.42749 -67.94958,44.46698c-3.20374,2.60852 -7.00928,6.39526 -7.49646,8.49371c-0.77234,3.34338 0.25195,9.77179 0.49963,14.98883c3.32458,69.79596 9.10571,152.47406 -12.49072,207.3457c-11.51221,29.2533 -30.58752,50.6228 -60.45496,60.95471c-30.08594,10.40894 -74.62158,7.46533 -105.91711,-1.00134zm-700.98065,-324.75836c-87.26843,0 -174.53479,0 -261.8053,0c-0.39758,55.80426 32.06158,81.78088 80.93982,88.93591c52.19452,7.63812 107.28894,-5.56458 149.38885,-15.99023c0.99097,33.73114 18.01782,58.95209 10.49219,94.93152c-35.7276,7.56311 -70.97852,14.53082 -110.91748,15.48639c-41.57953,0.99719 -80.93146,-2.86664 -112.91602,-12.49066c-63.9837,-19.25031 -112.05414,-58.91248 -128.90417,-123.90784c-19.60413,-75.61469 -2.36493,-156.7168 27.47955,-208.34503c15.5177,-26.84259 35.78168,-48.60767 60.45508,-65.95093c25.23547,-17.73892 57.70917,-30.66888 95.92865,-32.47589c37.98425,-1.79449 73.19971,5.08792 98.42676,17.48697c25.81207,12.68851 44.89368,32.22403 60.45508,55.45871c14.82019,22.13159 27.38586,49.92535 33.4751,82.43866c6.06635,32.38214 6.18921,70.67249 -2.49811,104.42242zm-126.40387,-144.3905c-15.17621,-13.39838 -36.4021,-21.85046 -63.45282,-19.98517c-42.65167,2.94159 -74.73401,31.88879 -72.44611,79.94055c51.46167,1.16577 105.0885,0.1665 157.38293,0.49957c2.72089,-26.71552 -6.42444,-47.15656 -21.48401,-60.45496zm450.66479,-85.93616c-1.97144,32.83606 -10.83569,58.77716 -20.48486,83.93756c-23.93628,-8.21051 -52.51086,-18.66107 -83.9375,-20.48474c-35.44226,-2.05475 -61.54578,6.72412 -73.44531,30.47729c24.65247,62.745 127.2594,49.64227 170.37317,95.42908c2.9021,3.07892 6.56189,6.60553 7.99622,9.49292c1.88403,3.80341 2.68127,9.02667 3.99695,13.48999c8.92676,30.2962 13.42554,72.83954 1.99854,104.42236c-12.11182,33.47089 -37.42834,56.50793 -66.45056,71.94641c-30.40234,16.17548 -68.98608,24.50677 -112.41638,26.48242c-43.10327,1.95691 -85.86731,-6.54938 -120.91217,-17.48694c-5.03168,-39.37909 9.49298,-67.30212 20.4848,-93.93024c3.63483,0.72858 6.96777,2.50446 10.49219,3.99707c47.05463,19.92053 150.71301,31.39331 167.87512,-24.48187c-10.52332,-22.75378 -27.15686,-37.38464 -48.46399,-46.9671c-22.16882,-9.96759 -47.98096,-14.72235 -72.94568,-21.98358c-24.85645,-7.22797 -46.1261,-16.80206 -59.95532,-35.47363c-6.45355,-8.71649 -11.5144,-19.57294 -15.48853,-31.97626c-3.79926,-11.85986 -6.96149,-25.72461 -6.99481,-40.46991c-0.0957,-44.65015 26.03687,-76.41809 53.46021,-95.42902c29.3053,-20.31616 69.10284,-33.83105 114.41486,-35.97327c53.44153,-2.52515 94.26526,9.10583 130.40308,24.98145zm324.7583,0c5.98303,28.9743 -6.52014,50.62274 -10.99182,73.94501c-13.84802,5.94354 -30.05054,2.04016 -44.4668,-0.99921c-14.2041,-2.99573 -28.87646,-6.43066 -42.96814,-8.49371c-29.08667,-4.25726 -54.71338,-1.22821 -65.44922,20.48474c-1.32825,2.68341 -3.45569,6.24536 -3.49939,8.99329c-0.0813,5.28363 6.01208,16.01941 8.49353,19.98523c10.95239,17.49316 30.08801,27.81677 51.96143,32.9754c32.11365,7.57355 66.80237,7.45697 88.93384,23.98218c5.8623,4.37799 10.69214,10.69202 15.48853,16.48767c16.50012,19.93311 32.03235,45.83472 29.47803,83.93756c-2.35449,35.14063 -22.07312,62.04352 -41.96875,81.93695c-39.83081,39.83081 -100.25037,67.95166 -179.3667,67.95166c-36.2146,0 -71.30322,-9.52631 -99.42603,-23.98431c-5.32092,-41.48993 18.22192,-58.36487 20.98438,-93.43048c3.83887,0.2644 6.97815,2.65845 10.49231,3.99701c10.83362,4.12396 22.68311,7.15717 34.97388,9.99255c46.23438,10.67126 107.25574,10.68378 127.90491,-24.48175c1.96729,-3.35168 4.44458,-7.89001 4.49463,-10.49219c0.1228,-6.09344 -8.61865,-19.48547 -11.99109,-23.4826c-32.76941,-38.85022 -104.83875,-35.31329 -147.89001,-64.9516c-7.30078,-5.02759 -15.2594,-10.85864 -18.48621,-16.98737c-2.57312,-4.89014 -4.26147,-12.32837 -5.99561,-17.98663c-5.14612,-16.78131 -9.91553,-40.01819 -7.99402,-61.45428c2.62512,-29.2782 13.6731,-49.72974 27.97705,-65.95099c28.75574,-32.60901 76.21631,-53.20828 134.4021,-55.95837c51.05798,-2.41064 90.39124,8.73523 124.90918,23.98425z" fill="#272636" id="svg_3"/>
   </g>
  </g>
 </g>
</svg>