<svg width="900" height="500" xmlns="http://www.w3.org/2000/svg" xmlns:svg="http://www.w3.org/2000/svg">
 <defs>
  <style type="text/css">
   <![CDATA[
@font-face {
  font-family: "ifont";
  src: url("//at.alicdn.com/t/font_1442373896_4754455.eot?#iefix") format("embedded-opentype"), url("//at.alicdn.com/t/font_1442373896_4754455.woff") format("woff"), url("//at.alicdn.com/t/font_1442373896_4754455.ttf") format("truetype"), url("//at.alicdn.com/t/font_1442373896_4754455.svg#ifont") format("svg");
}

]]>
  </style>
 </defs>
 <g>
  <title>Layer 1</title>
  <g class="transform-group" id="svg_1">
   <g transform="translate(272, 61) scale(0.244141)" id="svg_2">
    <path d="m1290.81262,410.58057c-0.01501,-4.25665 -3.04846,-9.47162 -6.74268,-11.5863l-568.47003,-325.56099c-3.69421,-2.11466 -9.72693,-2.09418 -13.40472,0.04778l-566.17783,329.52822c-3.67915,2.14056 -6.67708,7.37604 -6.66206,11.63269l2.29076,655.09058c0.01501,4.25659 3.0498,9.47034 6.74263,11.58496l568.46861,325.55823c3.69421,2.11609 9.72693,2.09412 13.40472,-0.04639l566.18073,-329.5282c3.67773,-2.14063 6.677,-7.37463 6.66199,-11.63269l-2.29211,-655.08789zm-166.77844,533.34399c0,4.25659 -0.91064,11.10162 -2.02319,15.20941l-10.05188,17.85657c-2.93506,3.08258 -8.31519,7.41156 -11.95349,9.61902l-353.86664,214.66888c-3.63818,2.20752 -9.81702,5.38574 -13.73102,7.06213c0,0 -5.13306,2.198 -11.65039,2.198c-5.38568,0 -8.47229,-1.07593 -8.47229,-1.07593c-4.0191,-1.40063 -10.44226,-4.06677 -14.27301,-5.9248l-152.59833,-73.98047c-3.83063,-1.85657 -5.44562,-6.51184 -3.58771,-10.34119l24.81213,-51.17773c1.85669,-3.83081 6.51056,-5.44434 10.34125,-3.58765l134.88379,65.39197c3.83069,1.85669 9.94263,1.56995 13.58081,-0.63745l319.61841,-193.89374c3.63831,-2.2074 6.61707,-7.49609 6.61707,-11.75275l0,-366.93689c0,-4.25665 -2.99792,-9.51123 -6.66479,-11.67639l-317.79047,-187.69843c-3.66693,-2.16516 -9.68054,-2.19385 -13.36652,-0.06421l-325.44766,188.05609c-3.68597,2.1297 -6.70166,7.35565 -6.70166,11.6123l0,374.13812c0,4.25665 2.58704,10.07098 5.74878,12.92145c0,0 65.11902,58.69177 96.00754,57.43713c28.12546,-1.10443 53.85217,-26.03259 53.85217,-26.03259c3.05664,-2.9624 5.55762,-8.86816 5.55762,-13.12476l0,-407.02808c0,-4.25659 3.48254,-7.73926 7.73926,-7.73926l56.87469,0c4.25665,0 7.7392,3.48267 7.7392,7.73926l0,419.6969c0,4.25665 -0.52014,11.18219 -1.15625,15.39099c0,0 -0.9953,6.59106 -5.02118,12.56519c-1.86621,2.76855 -46.57306,67.84253 -122.7514,70.83215c-57.92047,2.30591 -114.83887,-31.19287 -169.09515,-99.47229c-5.08527,-6.39996 -6.54193,-14.87903 -6.54193,-14.87903c-0.72083,-4.19391 -1.31058,-11.1098 -1.31058,-15.36652l0,-407.95776c0,-4.25665 0.93106,-11.09613 2.06689,-15.19855l10.58694,-18.34387c2.98294,-3.03754 8.43954,-7.26416 12.12418,-9.3938l361.82565,-209.07578c3.68591,-2.1297 10.07501,-4.73581 14.19916,-5.79111l21.52075,0.10242c4.11462,1.09485 10.47772,3.76245 14.14319,5.92761l353.76843,208.94745c3.66687,2.16522 9.08801,6.43811 12.04907,9.49481l10.34668,18.12683c1.12622,4.1051 2.04773,10.94739 2.04773,15.20398l0,407.95233l0.00415,0zm-227.07025,-125.95691c-9.20941,-5.96991 -32.10077,-13.55896 -68.68085,-22.76843c-49.27191,-12.43817 -83.42462,-23.19983 -102.46063,-32.2865c-19.04022,-9.08112 -33.47418,-21.65039 -43.30212,-37.70215c-9.83337,-16.05042 -14.74261,-33.78131 -14.74261,-53.19012c0,-17.66669 4.0423,-34.0257 12.13104,-49.08496c8.08319,-15.05383 19.09473,-27.55756 33.0332,-37.51373c10.45459,-7.70917 24.69611,-14.24292 42.74237,-19.59583c18.03546,-5.34875 37.3855,-8.02448 58.04193,-8.02448c31.10284,0 58.41467,4.47919 81.93262,13.43744c23.51514,8.95972 40.87201,21.09064 52.06921,36.39429c11.19855,15.30231 21.20264,53.90955 21.20264,53.90955c1.06757,4.12012 -1.50848,7.96307 -5.72693,8.53784l-50.35736,6.86688c-4.21844,0.57471 -8.73175,-2.27167 -10.03003,-6.32495c0,0 -9.27502,-28.95813 -23.58203,-40.4079c-14.31256,-11.44153 -34.52679,-17.1698 -60.65765,-17.1698c-30.85846,0 -52.88159,5.10297 -66.06781,15.30359c-13.19312,10.20605 -19.78143,22.15137 -19.78143,35.83453c0,8.71399 2.73584,16.55151 8.21021,23.51526c5.47162,7.2218 14.05725,13.19312 25.75671,17.91797c6.71954,2.49011 26.50098,8.21155 59.34845,17.16986c47.5274,12.69067 80.68481,23.08514 99.47382,31.1698c18.7876,8.09003 33.53015,19.84839 44.23456,35.27344c10.69476,15.43329 16.04901,34.59088 16.04901,57.48358c0,22.39447 -6.5351,43.48639 -19.59717,63.27057c-13.06195,19.78143 -31.91376,35.0838 -56.5484,45.90967s-52.50891,16.23871 -83.6145,16.23871c-51.50818,0 -90.76526,-10.69757 -117.76447,-32.10077c-27.00049,-21.40051 -49.23651,-87.84515 -49.23651,-87.84515c-1.3515,-4.03687 0.98425,-7.87982 5.18903,-8.54193l51.15198,-8.04773c4.20465,-0.66071 8.64691,2.13379 9.87018,6.21021c0,0 11.89343,39.61884 28.94177,53.80176c17.0401,14.18549 40.87079,21.27765 71.47937,21.27765c30.85309,0 53.75128,-6.28253 68.68085,-18.84906c14.93231,-12.56372 22.39709,-27.30908 22.39709,-44.23181c-0.00128,-15.17804 -6.60065,-27.12335 -19.78552,-35.83728z" fill="#272636" id="svg_3"/>
   </g>
  </g>
 </g>
</svg>