<svg xmlns="http://www.w3.org/2000/svg" width="64" height="64" viewBox="0 0 64 64"><defs><style><![CDATA[

]]></style></defs><path d="M30.968 1.52h1.907c-.08.913.044 1.028.477 1.37 4.91 3.9 8.474 9.286 10.19 15.97-7.667-.04-15.494.08-23.06-.058 1.643-5.945 4.59-10.963 8.7-14.66.5-.452 1.658-1.163 1.786-1.61.09-.308-.075-.923 0-1.012zM20.063 20.65H44.02c.55 2.75 1.08 5.754.952 8.76-.125 2.973-.705 5.87-1.25 8.4-1.157 5.36-2.56 10.474-3.994 15.316H24.473c-1.625-4.657-2.933-9.858-4.112-15.196-1.11-5.036-1.908-11.697-.356-17.102-.005-.085-.01-.17.06-.18zm7.33 7.27c-1.05 3.334 1.264 6.46 4.648 6.435 1.39-.01 2.86-.75 3.636-1.61 2.833-3.144.43-8.65-4.112-8.163-2.285.244-3.642 1.66-4.17 3.337zM9.04 39.48V37.63c.516-5.005 3.733-7.628 7.865-8.82.665 7.6 2.22 14.307 4.35 20.44-1.62 2.28-3.425 4.673-3.277 8.522-5.04-4.037-8.37-9.784-8.94-18.295zm38.197-10.667c3.005.922 5.283 2.41 6.614 4.827 1.402 2.542 1.362 6.217.716 9.772-.572 3.15-1.705 5.862-3.158 8.284-1.448 2.413-3.18 4.617-5.304 6.018.105-2.836-.92-5.046-2.204-6.972-.34-.51-1.037-1.145-1.073-1.49-.05-.495.558-1.623.775-2.324 1.698-5.49 3.005-11.457 3.575-17.996-.025-.115.04-.215.06-.12zM26.56 54.973h10.904c-.664 1.323-1.493 2.48-2.145 3.814-.652-.423-1.07-1.078-1.67-1.55-.55 1.756-1.12 3.49-1.668 5.244-.722-1.7-1.347-3.5-2.027-5.243-.496.854-.907 1.795-1.37 2.682-.742-1.584-1.372-3.277-2.026-4.947z" fill="#272636" class="transform-group"/></svg>